<svg xmlns="http://www.w3.org/2000/svg" xml:space="preserve" width="200" height="200" viewBox="0 0 58.21 58.21"><path d="M48.077 25.553q.03-.457.03-.897c0-8.459-6.882-15.341-15.34-15.341a15.33 15.33 0 0 0-14.032 9.174.44.44 0 0 1-.161.117c-3.776.395-7.116 2.797-8.713 6.266a.77.77 0 0 1-.316.263C3.925 26.369 0 31.231 0 36.96c0 6.692 5.341 11.935 12.159 11.935h34.448c6.397 0 11.603-5.307 11.603-11.83 0-5.901-4.427-10.787-10.133-11.512m-1.47 20.341H12.159C7.023 45.894 3 41.97 3 36.959c0-4.308 2.956-7.966 7.187-8.895 1.001-.219 1.964-.996 2.397-1.935 1.158-2.515 3.573-4.255 6.302-4.54 1.089-.113 2.151-.883 2.585-1.873a12.34 12.34 0 0 1 11.297-7.402c6.805 0 12.34 5.536 12.34 12.341 0 .378-.021.773-.064 1.176-.102.951-.169 1.579.334 2.137.284.316.699.501 1.124.501.028-.014.108-.004.162-.01 4.718.031 8.547 3.878 8.547 8.603-.001 4.788-3.941 8.832-8.604 8.832" style="fill:#FFFFFF"/></svg>